<?xml version="1.0" encoding="UTF-8" standalone="no"?>
<!DOCTYPE svg PUBLIC "-//W3C//DTD SVG 1.1//EN" "http://www.w3.org/Graphics/SVG/1.1/DTD/svg11.dtd">
<svg width="100%" height="100%" viewBox="0 0 938 938" version="1.1" xmlns="http://www.w3.org/2000/svg" xmlns:xlink="http://www.w3.org/1999/xlink" xml:space="preserve" xmlns:serif="http://www.serif.com/" style="fill-rule:evenodd;clip-rule:evenodd;stroke-linejoin:round;stroke-miterlimit:2;">
    <g transform="matrix(1,0,0,1,-1701.808486,-1053.308934)">
        <g id="画板4" transform="matrix(1,0,0,1,1701.808486,1053.308934)">
            <rect x="0" y="0" width="937.5" height="937.5" style="fill:none;"/>
            <g transform="matrix(19.283985,0,0,19.283985,-1796.204819,-2258.999595)">
                <path d="M118.385,126.98C118.947,126.824 119.522,126.703 120.111,126.619C123.083,127.042 125.674,128.358 127.884,130.568C130.618,133.302 131.984,136.618 131.984,140.518C131.984,144.418 130.618,147.735 127.884,150.468C125.632,152.721 122.983,154.045 119.938,154.441C119.409,154.359 118.892,154.246 118.385,154.105L118.385,150.918C118.385,150.881 118.383,150.843 118.38,150.805C118.248,149.247 117.75,148.099 116.993,147.32C116.989,147.317 116.986,147.313 116.982,147.309C117.291,147.349 117.609,147.368 117.934,147.368C118.681,147.368 119.384,147.265 120.043,147.059C120.742,147.299 121.479,147.418 122.256,147.418C124.089,147.418 125.706,146.752 127.106,145.418C128.439,144.085 129.106,142.452 129.106,140.518C129.106,138.618 128.439,137.002 127.106,135.668C125.706,134.335 124.089,133.668 122.256,133.668C121.507,133.668 120.795,133.779 120.119,134.001C119.438,133.779 118.71,133.668 117.934,133.668C117.646,133.668 117.364,133.684 117.088,133.714C117.792,132.938 118.254,131.823 118.38,130.331C118.383,130.294 118.385,130.256 118.385,130.218L118.385,126.98ZM115.156,155.911L115.156,159.518C115.156,161.852 114.006,163.018 111.706,163.018L108.206,163.018L108.206,154.982C109.135,155.318 110.096,155.556 111.09,155.695C111.514,155.766 111.904,155.818 112.259,155.854C112.633,155.891 113.044,155.911 113.493,155.911L115.156,155.911ZM113.708,135.11C113.494,135.281 113.286,135.467 113.084,135.668C111.751,136.968 111.084,138.585 111.084,140.518C111.084,142.418 111.751,144.035 113.084,145.368C113.327,145.611 113.579,145.832 113.841,146.03C113.759,146.027 113.676,146.026 113.593,146.026L113.543,146.026C112.068,146.026 110.771,145.484 109.642,144.419C108.923,143.657 108.442,142.817 108.206,141.899L108.206,140.868C108.192,140.472 108.15,140.091 108.082,139.723C108.091,139.65 108.102,139.577 108.114,139.505C108.329,138.39 108.832,137.433 109.625,136.634C110.444,135.873 111.296,135.359 112.196,135.113L112.203,135.111C112.216,135.111 112.231,135.111 112.243,135.111L113.593,135.111C113.631,135.111 113.67,135.11 113.708,135.11ZM107.314,137.628C107.018,137.119 106.649,136.649 106.206,136.218C106.006,135.952 105.739,135.718 105.406,135.518C104.706,134.985 104.306,134.277 104.206,133.393C104.106,132.51 104.372,131.752 105.006,131.118C106.006,130.118 107.056,129.318 108.156,128.718C109.322,129.318 110.372,130.118 111.306,131.118C111.439,131.252 111.539,131.335 111.606,131.368C111.706,131.235 111.814,131.11 111.931,130.993C112.047,130.877 112.172,130.735 112.306,130.568C113.748,129.161 115.327,128.115 117.043,127.433L117.043,130.218C116.843,132.585 115.693,133.768 113.593,133.768L112.243,133.768C112.043,133.768 111.909,133.785 111.843,133.818C110.743,134.118 109.693,134.735 108.693,135.668C108.108,136.253 107.648,136.906 107.314,137.628ZM108.206,153.543L108.206,152.485C109.086,153.214 110.016,153.827 110.995,154.323C110.031,154.167 109.101,153.907 108.206,153.543ZM117.043,153.652C116.483,153.43 115.937,153.168 115.406,152.868C115.339,152.835 115.297,152.81 115.281,152.793C115.264,152.777 115.222,152.752 115.156,152.718L115.156,154.319C112.531,153.829 110.214,152.618 108.206,150.685L108.206,144.81C108.357,145 108.519,145.186 108.693,145.368C110.093,146.702 111.709,147.368 113.543,147.368L113.593,147.368C115.693,147.368 116.843,148.552 117.043,150.918L117.043,153.652ZM118.18,135.015C117.915,135.212 117.657,135.429 117.406,135.668C116.139,136.935 115.472,138.518 115.406,140.418L115.406,140.818C115.439,142.552 116.106,144.085 117.406,145.418C117.636,145.638 117.873,145.84 118.116,146.023C118.056,146.025 117.995,146.026 117.934,146.026C116.406,146.026 115.106,145.491 114.034,144.419C112.961,143.347 112.427,142.046 112.427,140.518C112.427,138.969 112.953,137.671 114.021,136.629L114.034,136.617C115.106,135.545 116.406,135.011 117.934,135.011C118.017,135.011 118.099,135.012 118.18,135.015ZM124.818,126.685C127.587,127.169 130.049,128.463 132.206,130.568C134.939,133.302 136.306,136.618 136.306,140.518C136.306,144.452 134.939,147.785 132.206,150.518C130.01,152.662 127.496,153.965 124.664,154.428C126.169,153.695 127.559,152.692 128.834,151.417C131.828,148.423 133.327,144.791 133.327,140.518C133.327,136.246 131.828,132.613 128.834,129.619C127.603,128.388 126.264,127.41 124.818,126.685Z" style="fill:white;"/>
            </g>
            <g transform="matrix(19.283985,0,0,19.283985,-1805.293498,-2258.999769)">
                <path d="M104.356,128.502L104.356,119.368L107.856,119.368C110.156,119.368 111.306,120.535 111.306,122.868L111.306,125.343C109.595,125.648 108.031,126.2 106.614,126.994C105.819,127.426 105.066,127.928 104.356,128.502ZM118.853,126.474C122.56,126.575 125.727,127.94 128.356,130.568C131.089,133.302 132.456,136.618 132.456,140.518C132.456,144.418 131.089,147.735 128.356,150.468C125.728,153.096 122.562,154.46 118.856,154.562L118.856,150.918C118.856,150.881 118.855,150.843 118.851,150.805C118.72,149.247 118.221,148.099 117.464,147.32C117.46,147.317 117.457,147.313 117.454,147.309C117.763,147.349 118.08,147.368 118.406,147.368C120.306,147.368 121.922,146.702 123.256,145.368C124.589,144.035 125.256,142.418 125.256,140.518C125.256,138.585 124.589,136.968 123.256,135.668C121.922,134.335 120.306,133.668 118.406,133.668C118.117,133.668 117.835,133.684 117.56,133.714C118.263,132.938 118.725,131.823 118.851,130.331C118.855,130.294 118.856,130.256 118.856,130.218L118.856,126.568C118.856,126.537 118.855,126.505 118.853,126.474ZM111.306,126.708L111.306,128.318C112.892,127.372 114.655,126.788 116.594,126.568L117.514,126.568L117.514,130.218C117.314,132.585 116.164,133.768 114.064,133.768L112.714,133.768C112.514,133.768 112.38,133.785 112.314,133.818C111.214,134.118 110.164,134.735 109.164,135.668C108.164,136.668 107.53,137.868 107.264,139.268C107.23,139.468 107.205,139.668 107.189,139.868C107.172,140.068 107.164,140.285 107.164,140.518C107.164,142.352 107.83,143.968 109.164,145.368C110.564,146.702 112.18,147.368 114.014,147.368L114.064,147.368C116.164,147.368 117.314,148.552 117.514,150.918L117.514,154.544C113.998,154.349 110.978,152.991 108.456,150.468C105.989,147.968 104.639,145.002 104.406,141.568L104.356,140.518L104.356,130.284C105.244,129.444 106.213,128.738 107.264,128.168C108.49,127.48 109.838,126.994 111.306,126.708ZM114.179,135.11C113.965,135.281 113.757,135.467 113.556,135.668C112.222,136.968 111.556,138.585 111.556,140.518C111.556,142.418 112.222,144.035 113.556,145.368C113.798,145.611 114.051,145.832 114.312,146.03C114.231,146.027 114.148,146.026 114.064,146.026L114.014,146.026C112.539,146.026 111.242,145.484 110.114,144.419C109.048,143.29 108.506,141.993 108.506,140.518C108.506,140.325 108.513,140.145 108.527,139.98C108.54,139.821 108.559,139.663 108.585,139.505C108.8,138.39 109.304,137.433 110.096,136.634C110.916,135.873 111.767,135.359 112.667,135.113L112.674,135.111C112.688,135.111 112.702,135.111 112.714,135.111L114.064,135.111C114.103,135.111 114.141,135.11 114.179,135.11Z" style="fill:white;"/>
            </g>
            <g transform="matrix(19.283985,0,0,19.283985,-1887.093001,-2258.999682)">
                <path d="M116.356,126.568L121.756,126.568L121.756,130.218C121.556,132.585 120.406,133.768 118.306,133.768L116.956,133.768C116.756,133.768 116.622,133.785 116.556,133.818C115.456,134.118 114.406,134.735 113.406,135.668C112.406,136.668 111.772,137.868 111.506,139.268C111.472,139.468 111.447,139.668 111.431,139.868C111.414,140.068 111.406,140.285 111.406,140.518C111.406,142.352 112.072,143.968 113.406,145.368C114.806,146.702 116.422,147.368 118.256,147.368L118.306,147.368C120.406,147.368 121.556,148.552 121.756,150.918L121.756,154.568L118.206,154.568C117.806,154.568 117.439,154.552 117.106,154.518C116.772,154.485 116.406,154.435 116.006,154.368C113.139,153.968 110.572,152.668 108.306,150.468C105.572,147.668 104.206,144.352 104.206,140.518C104.206,138.018 104.789,135.752 105.956,133.718C106.522,132.618 107.306,131.568 108.306,130.568C109.272,129.602 110.339,128.802 111.506,128.168C112.872,127.402 114.389,126.885 116.056,126.618L116.356,126.568Z" style="fill:white;fill-rule:nonzero;"/>
            </g>
        </g>
    </g>
</svg>
